<?xml version="1.0" encoding="utf-8"?>
<!-- Generator: Adobe Illustrator 23.0.3, SVG Export Plug-In . SVG Version: 6.00 Build 0)  -->
<svg version="1.1" id="Layer_4" xmlns="http://www.w3.org/2000/svg" xmlns:xlink="http://www.w3.org/1999/xlink" x="0px" y="0px"
	 viewBox="0 0 1000 1000" style="enable-background:new 0 0 1000 1000;" xml:space="preserve">
<style type="text/css">
	.st0{fill:#0066CC;}
	.st1{display:none;}
	.st2{display:inline;fill:#0033CC;}
	.st3{display:inline;}
</style>
<g id="XMLID_1_">
	<path class="st0" d="M929,373.71c0,341,0,341-106.6,341c-108.65,0-108.65,0-108.65-76.84c0,240.14,0,240.14-106.6,240.14
		c-108.65,0-108.65,0-108.65-273.76C498.5,878,498.5,878,389.85,878c-106.6,0-106.6,0-106.6-240.14c0,76.84,0,76.84-108.65,76.84
		c-106.6,0-106.6,0-106.6-341c106.6,0,106.6,1.92,106.6,80.69c0-207.48,0-207.48,108.65-207.48c106.6,0,106.6,0,106.6,207.48
		c0-331.39,0-331.39,108.65-331.39s108.65,0,108.65,331.39c0-207.48,0-207.48,106.6-207.48c108.65,0,108.65,0,108.65,207.48
		C822.4,375.63,822.4,373.71,929,373.71z"/>
	<g>
		<path d="M921.5,373.71c0,68.32,0.79,136.76-1.96,205.04c-0.45,11.18-1.03,22.35-1.88,33.5c-0.36,4.76-0.77,9.52-1.26,14.26
			c-0.22,2.14-0.45,4.28-0.7,6.42c-0.11,0.97-0.23,1.94-0.35,2.91c-0.06,0.5-0.48,3.73-0.28,2.24c-1.8,13.32-4.37,26.59-9.17,39.18
			c-0.2,0.53-1.01,2.37-0.1,0.28c-0.23,0.53-0.46,1.07-0.7,1.6c-0.57,1.2-1.13,2.4-1.75,3.58c-1.06,2.02-2.23,3.99-3.52,5.88
			c-0.58,0.85-2.39,3.05-0.91,1.3c-0.73,0.86-1.44,1.74-2.2,2.57c-1.38,1.49-2.88,2.78-4.4,4.12c-1.2,1.06,1.49-1.04,0.18-0.13
			c-0.42,0.29-0.82,0.6-1.24,0.89c-0.84,0.58-1.69,1.12-2.57,1.64c-0.83,0.49-1.68,0.95-2.54,1.39c-0.76,0.39-4.05,1.77-1.5,0.76
			c-4,1.59-8.1,2.79-12.32,3.63c-1.1,0.22-2.21,0.42-3.31,0.6c-0.6,0.1-1.21,0.18-1.81,0.28c-1.98,0.32,1.58-0.16-0.47,0.06
			c-2.45,0.26-4.9,0.53-7.36,0.72c-5.72,0.43-11.46,0.6-17.19,0.69c-22.46,0.36-45,0.4-67.45-0.31c-5.96-0.19-11.93-0.47-17.87-1.02
			c-4.84-0.45-7.37-0.72-12.33-1.81c-1.8-0.4-3.59-0.85-5.35-1.41c-0.76-0.24-1.52-0.51-2.27-0.78c-1.96-0.69,0.43,0.32-1.33-0.55
			c-1.42-0.7-2.75-1.47-4.08-2.32c-1.53-0.97,0.24,0.3-0.46-0.31c-0.61-0.53-1.21-1.06-1.78-1.63c-0.45-0.46-0.87-0.94-1.29-1.42
			c-0.49-0.56,0.61,1.12-0.42-0.61c-0.77-1.3-1.52-2.56-2.18-3.93c0.32,0.67,0.07,0.31-0.34-0.9c-0.23-0.7-0.48-1.39-0.69-2.1
			c-0.51-1.71-0.92-3.45-1.26-5.19c-0.18-0.95-0.34-1.9-0.49-2.85c-0.26-1.65,0,0.41-0.22-1.73c-0.23-2.23-0.43-4.45-0.57-6.68
			c-0.32-5.07-0.44-10.16-0.51-15.24c-0.08-6.15-0.07-12.3-0.07-18.46c0-9.65-15-9.67-15,0c0,39.83,0.26,79.69-0.92,119.51
			c-0.7,23.59-1.45,47.39-6.17,69.35c-0.86,4.01-1.88,8-3.16,11.9c-0.53,1.62-1.12,3.21-1.73,4.79c-0.79,2.05,0.48-0.93-0.43,1.01
			c-0.38,0.81-0.75,1.63-1.15,2.43c-1.39,2.77-3.01,5.4-4.86,7.88c1.41-1.89-0.99,1.11-1.55,1.7c-1.04,1.1-2.15,2.1-3.27,3.11
			c-1.46,1.32,0.05,0.03-0.4,0.34c-0.5,0.35-0.99,0.72-1.5,1.06c-1.19,0.8-2.43,1.54-3.7,2.21c-0.62,0.33-1.24,0.63-1.87,0.94
			c-0.35,0.17-2.27,0.99-1.05,0.48c1.22-0.51-0.75,0.29-1.12,0.42c-0.83,0.3-1.67,0.59-2.51,0.86c-3,0.96-6.07,1.68-9.16,2.25
			c-0.83,0.15-1.66,0.29-2.49,0.43c-0.54,0.09-3.37,0.48-1.1,0.18c-1.8,0.24-3.61,0.44-5.41,0.61c-18.42,1.74-37.09,1.21-55.56,1.16
			c-8.39-0.02-16.78-0.08-25.15-0.49c-3.6-0.18-7.2-0.42-10.79-0.79c-0.84-0.09-1.68-0.18-2.52-0.28c-0.33-0.04-0.66-0.08-0.99-0.12
			c-1.75-0.21,1.78,0.27,0.05,0.01c-1.56-0.24-3.12-0.48-4.68-0.77c-2.89-0.55-5.76-1.23-8.58-2.1c-1.32-0.41-2.61-0.89-3.91-1.37
			c-1.93-0.71,1.4,0.69-0.44-0.18c-0.66-0.31-1.32-0.61-1.97-0.94c-2.38-1.2-4.61-2.61-6.75-4.21c2,1.49-0.82-0.75-1.44-1.32
			c-1.06-0.98-2.06-2.03-3.02-3.11c-0.4-0.46-0.77-0.93-1.16-1.39c-1.04-1.23,0.88,1.3-0.2-0.28c-0.89-1.29-1.77-2.57-2.56-3.92
			c-0.73-1.22-1.4-2.48-2.04-3.75c-0.31-0.63-0.61-1.27-0.91-1.9c-0.2-0.43-0.39-0.87-0.59-1.31c-0.6-1.36,0.59,1.5,0-0.02
			c-2.8-7.1-4.72-14.48-6.18-21.96c-2.01-10.35-2.88-18.24-3.83-29.17c-1.15-13.28-1.78-26.61-2.23-39.93
			c-1.26-37.12-1.21-74.29-1.25-111.44C506,627.91,506,616.08,506,604.24c0-9.65-15-9.67-15,0c0,41.53,0.16,83.08-0.67,124.61
			c-0.53,26.27-1.18,52.72-4.58,78.81c-0.32,2.46,0.21-1.45-0.13,0.97c-0.07,0.48-0.14,0.97-0.21,1.45
			c-0.17,1.18-0.35,2.36-0.54,3.53c-0.38,2.34-0.79,4.67-1.25,7c-0.78,3.98-1.69,7.94-2.8,11.85c-0.99,3.48-2.15,6.9-3.51,10.25
			c0.81-2-0.85,1.84-1.21,2.56c-0.73,1.48-1.51,2.92-2.36,4.33c-0.7,1.16-1.48,2.25-2.22,3.37c-1.16,1.76,0.46-0.5-0.19,0.29
			c-0.51,0.62-1.02,1.25-1.55,1.85c-0.83,0.93-1.7,1.83-2.61,2.68c-0.43,0.4-0.87,0.78-1.3,1.17c-0.29,0.26-0.6,0.49-0.89,0.74
			c-1.11,0.95,1.49-1.08,0.3-0.22c-2.11,1.52-4.28,2.9-6.62,4.06c-0.59,0.3-1.2,0.56-1.8,0.85c-1.8,0.86,1.48-0.51-0.44,0.18
			c-1.3,0.47-2.59,0.96-3.91,1.37c-2.81,0.88-5.68,1.56-8.58,2.1c-1.55,0.29-3.11,0.53-4.68,0.77c-1.66,0.25,1.4-0.18,0.29-0.04
			c-0.41,0.05-0.82,0.11-1.23,0.15c-0.93,0.1-1.85,0.21-2.78,0.3c-7.68,0.77-15.41,1.02-23.12,1.15
			c-18.72,0.31-37.55,0.48-56.27-0.29c-3.96-0.16-7.92-0.4-11.86-0.77c-1.81-0.17-3.61-0.37-5.41-0.61c2.3,0.3-0.65-0.11-1.1-0.18
			c-0.91-0.15-1.82-0.3-2.73-0.47c-3.16-0.59-6.29-1.34-9.34-2.34c-1.25-0.41-2.48-0.87-3.7-1.36c2.29,0.9-0.01-0.01-0.55-0.27
			c-0.75-0.37-1.5-0.73-2.24-1.13c-1.08-0.59-2.14-1.22-3.17-1.9c-0.57-0.38-1.11-0.78-1.67-1.17c-1.24-0.87,1.39,1.16,0.23,0.18
			c-0.31-0.26-0.64-0.51-0.94-0.78c-0.97-0.88-1.92-1.75-2.82-2.7c-0.43-0.45-0.84-0.93-1.26-1.39c-0.28-0.31-0.54-0.65-0.81-0.97
			c-0.89-1.06,1,1.38,0.12,0.17c-1.78-2.46-3.36-5.03-4.71-7.75c-0.36-0.73-0.7-1.47-1.04-2.21c-0.9-1.93,0.35,1.03-0.43-1.01
			c-0.64-1.68-1.26-3.35-1.82-5.06c-6.49-20.01-7.35-39.24-8.43-60.38c-1.79-35.1-1.67-70.31-1.72-105.45
			c-0.01-11.55-0.01-23.11-0.01-34.66c0-9.65-15-9.67-15,0c0,11.35,0.14,22.75-0.61,34.09c-0.14,2.1-0.33,4.2-0.55,6.29
			c-0.05,0.46-0.11,0.92-0.17,1.38c0.19-1.44,0.04-0.27-0.01,0.02c-0.16,1.06-0.34,2.12-0.54,3.18c-0.34,1.75-0.74,3.49-1.26,5.19
			c-0.21,0.71-0.45,1.4-0.69,2.1c-0.12,0.34-0.25,0.67-0.38,1c-0.64,1.7,0.72-1.47-0.07,0.13c-0.59,1.2-1.25,2.34-1.93,3.49
			c-0.75,1.26-0.86,1.16-0.4,0.62c-0.52,0.61-1.04,1.21-1.61,1.78c-0.52,0.51-1.06,0.99-1.61,1.46c-0.9,0.78,1.25-0.75-0.46,0.31
			c-1.34,0.83-2.67,1.62-4.08,2.32c-1.9,0.94,0.64-0.16-1.06,0.45c-0.75,0.27-1.49,0.54-2.25,0.78c-1.96,0.63-3.96,1.14-5.98,1.57
			c-4.96,1.07-7.4,1.33-12.44,1.78c-25,2.25-50.37,1.48-75.45,1.38c-11.49-0.05-22.97-0.24-34.39-1.55
			c-1.28-0.15,1.9,0.31-0.06-0.01c-0.54-0.09-1.07-0.16-1.61-0.24c-1.24-0.2-2.47-0.42-3.7-0.67c-2.16-0.43-4.3-0.95-6.4-1.57
			c-0.98-0.29-1.96-0.6-2.92-0.94c-0.79-0.28-4.17-1.73-1.65-0.59c-1.82-0.83-3.62-1.69-5.34-2.72c-0.82-0.49-1.63-1.01-2.42-1.55
			c-0.37-0.26-0.73-0.53-1.1-0.79c-1.5-1.03,1.27,1.14-0.09-0.08c-1.55-1.39-3.1-2.73-4.5-4.27c-0.64-0.7-1.24-1.44-1.85-2.17
			c-0.52-0.61,1.07,1.56-0.05-0.07c-0.32-0.46-0.65-0.91-0.97-1.37c-1.33-1.94-2.53-3.97-3.62-6.06c-0.55-1.06-1.06-2.13-1.56-3.21
			c-0.28-0.59-0.53-1.19-0.79-1.79c0.78,1.79,0.04,0.08-0.26-0.7c-0.98-2.54-1.87-5.12-2.66-7.73c-1.95-6.41-3.38-12.96-4.55-19.55
			c-1.59-8.94-2.24-14.33-3.16-23.45c-1.01-10-1.71-20.04-2.27-30.07c-3.52-63.22-2.76-126.73-2.78-190.02c0-10.77,0-21.55,0-32.32
			c-2.5,2.5-5,5-7.5,7.5c16.71,0,33.45-0.1,50.15,0.73c10.58,0.53,19.32,0.97,29.29,4.01c0.99,0.3,1.97,0.65,2.95,0.99
			c1.72,0.6-0.02-0.08,0.92,0.36c1.65,0.78,3.2,1.66,4.74,2.63c1.78,1.12-0.61-0.71,0.92,0.68c0.49,0.45,0.99,0.88,1.47,1.36
			c0.59,0.59,1.12,1.21,1.66,1.84c-1.23-1.45,0.2,0.3,0.59,0.91c0.84,1.31,1.56,2.69,2.2,4.11c-0.84-1.85,0.19,0.54,0.35,1.02
			c0.33,1.01,0.66,2.02,0.94,3.04c1.21,4.44,1.59,7.5,1.92,10.84c1.34,13.49,1.04,27.14,1.04,40.68c0,9.65,15,9.67,15,0
			c0-32.64-0.2-65.3,0.77-97.93c0.6-20.29,1.32-40.79,5.23-59.61c0.71-3.42,1.54-6.82,2.57-10.17c0.48-1.56,0.99-3.1,1.56-4.63
			c0.25-0.68,0.52-1.36,0.79-2.04c0.15-0.37,0.59-1.31-0.13,0.32c0.18-0.4,0.34-0.8,0.54-1.19c1.19-2.44,2.43-4.82,3.94-7.07
			c0.35-0.51,0.71-1.01,1.07-1.52c0.56-0.79-1.04,1.13,0.37-0.45c0.84-0.94,1.66-1.89,2.56-2.78c0.84-0.82,1.72-1.57,2.61-2.34
			c0.75-0.64-1.29,0.87,0.22-0.16c0.6-0.41,1.2-0.84,1.82-1.23c1-0.64,2.03-1.23,3.08-1.78c0.54-0.28,1.08-0.54,1.62-0.81
			c0.27-0.14,0.56-0.25,0.83-0.38c1.49-0.71-1.64,0.63-0.08,0.03c5.39-2.11,10.96-3.36,16.66-4.29c0.38-0.06,0.76-0.11,1.13-0.17
			c1.09-0.16-1.37,0.17-0.26,0.03c0.79-0.1,1.58-0.2,2.37-0.28c1.75-0.2,3.5-0.36,5.26-0.5c3.82-0.31,7.65-0.51,11.48-0.65
			c9-0.33,18.02-0.36,27.03-0.37c17.58-0.02,35.28-0.41,52.82,0.94c1.65,0.13,3.3,0.27,4.95,0.45c0.79,0.08,1.58,0.18,2.37,0.27
			c2.25,0.25-0.75-0.15,1.44,0.2c3,0.48,5.99,1.02,8.94,1.77c2.59,0.66,5.12,1.49,7.62,2.46c-0.15-0.06-1.18-0.59,0.32,0.15
			c0.54,0.27,1.09,0.51,1.63,0.79c1.18,0.6,2.34,1.26,3.46,1.98c0.49,0.31,0.96,0.66,1.45,0.97c1.39,0.88,0.37,0.25,0.22,0.13
			c0.95,0.79,1.89,1.58,2.78,2.44c0.85,0.82,1.62,1.71,2.41,2.58c0.91,0.99,0.78,0.98,0.37,0.42c0.41,0.56,0.81,1.12,1.2,1.69
			c1.56,2.31,2.85,4.75,4.04,7.26c0.22,0.46,1.03,2.47,0.29,0.63c0.27,0.67,0.54,1.35,0.79,2.03c0.6,1.61,1.15,3.25,1.64,4.89
			c5.22,17.2,6.06,33.37,6.99,51.52c1.51,29.44,1.43,58.96,1.46,88.42c0.01,9.33,0.01,18.65,0.01,27.98c0,9.65,15,9.67,15,0
			c0-52.35-0.2-104.72,0.78-157.06c0.61-32.48,1.34-65.17,5.45-97.43c0.22-1.69,0.11-0.91,0.45-3.25c0.21-1.45,0.43-2.9,0.67-4.35
			c0.42-2.63,0.89-5.25,1.4-7.87c0.93-4.74,2.02-9.46,3.37-14.1c0.59-2.02,1.22-4.03,1.92-6.01c0.32-0.9,0.64-1.8,0.99-2.69
			c0.28-0.72,1.45-3.43,0.54-1.39c1.44-3.25,3.03-6.43,4.95-9.43c0.42-0.65,0.86-1.29,1.29-1.93c0.21-0.31,0.45-0.61,0.67-0.92
			c0.89-1.28-0.88,1.06-0.15,0.18c0.97-1.17,1.94-2.32,3-3.41c1.07-1.1,2.22-2.1,3.37-3.11c1.62-1.43-0.38,0.2,0.4-0.33
			c0.62-0.42,1.22-0.87,1.85-1.29c1.21-0.8,2.47-1.53,3.76-2.21c0.63-0.33,1.26-0.63,1.9-0.94c0.32-0.16,0.65-0.29,0.97-0.44
			c1.39-0.66-1.38,0.53-0.31,0.13c2.99-1.13,5.99-2.12,9.1-2.86c1.62-0.39,3.25-0.72,4.89-1.01c0.82-0.15,1.64-0.27,2.46-0.41
			c0.42-0.07,0.84-0.12,1.25-0.19c1.18-0.18-1.77,0.19,0.13-0.02c3.79-0.41,7.58-0.78,11.4-0.99c9.01-0.52,18.05-0.55,27.07-0.57
			c17.95-0.03,36.01-0.43,53.87,1.59c1.83,0.21-1.38-0.21-0.08-0.01c0.42,0.06,0.84,0.12,1.25,0.19c0.89,0.14,1.77,0.28,2.66,0.44
			c1.64,0.3,3.27,0.63,4.88,1.02c3.1,0.75,6.1,1.74,9.07,2.89c-1.17-0.45-0.76-0.37,0.5,0.25c0.69,0.33,1.38,0.66,2.05,1.02
			c1.28,0.68,2.54,1.42,3.75,2.22c0.58,0.38,1.13,0.8,1.71,1.19c1.14,0.77-0.77-0.63-0.41-0.33c0.31,0.26,0.64,0.5,0.95,0.77
			c1.16,1,2.29,2.02,3.36,3.13c1.06,1.09,2.02,2.25,2.99,3.43c-0.83-1.01-0.36-0.51,0.4,0.6c0.47,0.69,0.95,1.38,1.4,2.09
			c0.94,1.48,1.81,3.01,2.62,4.57c0.39,0.76,0.77,1.52,1.14,2.29c0.25,0.53,1.31,2.9,0.89,1.93c-0.43-1,0.54,1.35,0.74,1.87
			c0.37,0.97,0.73,1.94,1.07,2.91c0.69,1.99,1.33,4.01,1.91,6.03c1.34,4.66,2.43,9.39,3.35,14.15c2.4,12.33,3.43,21.9,4.53,34.93
			c1.37,16.15,2.11,32.36,2.64,48.56c1.54,46.97,1.46,93.99,1.5,140.98c0.01,15.07,0.01,30.14,0.01,45.21c0,9.65,15,9.67,15,0
			c0-32.79-0.2-65.6,0.76-98.38c0.6-20.31,1.31-40.84,5.22-59.68c0.71-3.42,1.54-6.81,2.56-10.15c0.48-1.55,0.99-3.09,1.56-4.61
			c0.25-0.68,0.52-1.36,0.79-2.03c-0.67,1.67,0.13-0.28,0.4-0.86c1.15-2.43,2.42-4.8,3.93-7.03c0.34-0.51,0.71-1.01,1.07-1.51
			c0.56-0.78-1.06,1.12,0.37-0.43c0.85-0.92,1.65-1.87,2.56-2.75c0.83-0.81,1.72-1.56,2.61-2.31c0.75-0.63-1.3,0.87,0.21-0.14
			c0.61-0.41,1.2-0.83,1.81-1.22c1-0.63,2.03-1.22,3.08-1.76c0.53-0.28,1.08-0.53,1.62-0.79c0.27-0.14,0.55-0.25,0.83-0.38
			c1.5-0.69-1.65,0.63-0.09,0.04c5.4-2.04,10.93-3.3,16.62-4.18c1.92-0.3-1.1,0.12,0.87-0.12c0.79-0.09,1.58-0.19,2.36-0.27
			c1.75-0.19,3.5-0.34,5.25-0.48c3.81-0.29,7.63-0.48,11.45-0.61c8.99-0.31,17.98-0.32,26.98-0.33c17.61-0.02,35.33-0.4,52.9,1.03
			c1.66,0.13,3.31,0.29,4.96,0.47c0.79,0.09,1.59,0.18,2.38,0.28c1.42,0.17-0.01,0-0.25-0.04c0.57,0.08,1.14,0.16,1.7,0.25
			c3.01,0.48,6.01,1.05,8.96,1.82c2.6,0.68,5.14,1.52,7.63,2.52c-0.16-0.06-1.16-0.58,0.33,0.17c0.54,0.27,1.09,0.52,1.63,0.8
			c1.19,0.61,2.34,1.28,3.47,2.01c0.49,0.32,0.96,0.67,1.45,0.99c1.38,0.9,0.37,0.27,0.23,0.15c0.95,0.8,1.89,1.6,2.78,2.47
			c0.85,0.83,1.62,1.72,2.42,2.6c0.9,1,0.78,0.99,0.38,0.44c0.41,0.56,0.82,1.12,1.2,1.7c1.56,2.32,2.85,4.78,4.05,7.31
			c0.79,1.67-0.09-0.3,0.29,0.64c0.27,0.68,0.54,1.36,0.79,2.04c0.6,1.62,1.15,3.26,1.65,4.91c5.21,17.2,6.07,33.37,7,51.52
			c1.51,29.32,1.43,58.73,1.47,88.08c0.01,9.28,0.01,18.55,0.01,27.83c0,9.65,15,9.67,15,0c0-12.4-0.18-24.86,0.74-37.24
			c0.39-5.21,0.5-6.76,1.56-11.6c0.38-1.75,0.84-3.48,1.41-5.18c0.26-0.79,0.55-1.58,0.86-2.35c-0.75,1.86,0.31-0.59,0.58-1.1
			c0.71-1.35,1.52-2.64,2.43-3.85c-1.32,1.76,0.42-0.42,0.76-0.75c0.6-0.58,1.19-1.15,1.81-1.71c1.53-1.39-0.86,0.45,0.92-0.68
			c0.59-0.38,1.18-0.76,1.79-1.12c0.79-0.46,1.61-0.86,2.43-1.27c1.75-0.88-0.54,0.1,1.43-0.6c9.54-3.41,17.84-4.12,27.63-4.75
			c18.21-1.17,36.51-0.99,54.75-0.99c9.65,0,9.67-15,0-15c-17.4,0-34.85-0.13-52.23,0.84c-10.98,0.61-22.52,1.4-32.99,5.02
			c-8.15,2.82-15.3,7.37-20.12,14.65c-4.93,7.43-6.53,16.48-7.53,25.16c-1.61,14.07-1.23,28.38-1.23,42.51c5,0,10,0,15,0
			c0-33.59,0.23-67.22-0.85-100.8c-0.67-20.78-1.54-42.01-6.03-62.38c-2.79-12.62-7.55-25.66-17.09-34.8
			c-8.91-8.54-20.8-12.62-32.78-14.48c-16.79-2.6-33.89-2.5-50.84-2.52c-18.14-0.03-36.42-0.47-54.52,1.04
			c-12.72,1.06-26.28,3.04-37.22,10.13c-10.81,7-17.34,17.91-21.3,29.94c-5.71,17.36-6.96,36.3-7.98,54.42
			c-1.7,30.17-1.58,60.45-1.63,90.66c-0.01,9.6-0.01,19.19-0.01,28.79c5,0,10,0,15,0c0-53.37,0.22-106.77-0.84-160.14
			c-0.66-33.08-1.49-66.37-6.03-99.18c-2.48-17.94-6.02-37.48-16.33-52.81c-8.08-12.02-19.97-19.61-33.98-23
			c-16.68-4.03-34.34-3.73-51.39-3.77c-18.26-0.03-36.79-0.64-54.94,1.73c-14.31,1.87-28.44,6.11-38.85,16.64
			c-11.75,11.88-17.04,28.8-20.32,44.77c-5.81,28.27-7.01,57.54-8.02,86.3c-1.67,47.76-1.57,95.59-1.61,143.38
			c-0.01,15.35-0.01,30.71-0.01,46.06c5,0,10,0,15,0c0-33.74,0.23-67.52-0.85-101.25c-0.67-20.8-1.52-42.05-6.02-62.44
			c-2.77-12.57-7.52-25.58-17.06-34.64c-8.92-8.48-20.77-12.44-32.72-14.25c-16.76-2.54-33.83-2.37-50.74-2.39
			c-18.17-0.02-36.48-0.46-54.6,1.13c-12.76,1.12-26.34,3.17-37.29,10.34c-10.82,7.09-17.36,18.03-21.34,30.13
			c-5.7,17.37-6.97,36.3-7.99,54.43c-1.7,30.06-1.59,60.22-1.63,90.32c-0.01,9.54-0.01,19.09-0.01,28.63c5,0,10,0,15,0
			c0-12.91,0.23-25.91-0.87-38.79c-0.78-9.14-2.12-18.55-6.58-26.71c-9.59-17.54-31.52-20.2-49.46-21.53
			c-19.01-1.41-38.15-1.16-57.2-1.16c-4.05,0-7.5,3.44-7.5,7.5c0,69.84-0.9,139.85,2.15,209.64c0.91,20.77,2.26,41.56,5.29,62.14
			c2.01,13.69,4.88,27.32,10.47,40.04c8.26,18.8,23.72,30.35,43.8,33.99c11.52,2.09,23.27,2.48,34.95,2.62
			c24.14,0.29,48.41,0.56,72.53-0.65c16.44-0.82,37.77-1.64,49.62-14.98c11.61-13.07,11.14-33.33,11.37-49.72
			c0.09-6.31,0.08-12.62,0.08-18.94c-5,0-10,0-15,0c0,40.59-0.29,81.22,0.99,121.8c0.76,24.27,1.61,49.16,7.05,72.93
			c3.18,13.89,8.67,28.44,19.91,37.83c11.17,9.33,25.34,12.38,39.48,13.81c18.66,1.89,37.6,1.32,56.33,1.27
			c16.12-0.04,32.51,0.03,48.42-2.98c12.04-2.28,23.83-7.27,32.2-16.49c9.95-10.97,14.71-25.59,17.64-39.84
			c4.84-23.49,5.98-47.78,6.86-71.69c1.4-38.22,1.33-76.5,1.36-114.74c0.01-11.84,0.01-23.67,0.01-35.51c-5,0-10,0-15,0
			c0,42.36-0.18,84.73,0.72,127.07c0.58,27.13,1.41,54.4,5.2,81.3c2.2,15.59,5.47,32.18,14.06,45.67
			c6.96,10.92,17.21,18.29,29.52,22.13c13.99,4.37,29.24,4.72,43.77,4.97c19.24,0.33,38.61,0.53,57.83-0.34
			c14.63-0.66,30.14-2.01,43.24-9.13c12.53-6.8,20.14-18.84,24.68-32.01c6.89-19.96,8.17-42.01,9.33-62.92
			c2-36.1,1.83-72.33,1.88-108.47c0.01-11.55,0.01-23.11,0.01-34.66c-5,0-10,0-15,0c0,11.74-0.17,23.53,0.69,35.25
			c0.62,8.45,1.72,16.97,5.2,24.76c6.96,15.59,23.26,20.27,38.88,22.26c26.03,3.31,52.78,2.12,78.95,2.07
			c11.98-0.02,24.04-0.01,35.95-1.4c20.47-2.4,38.69-9.92,49.33-28.55c6.18-10.82,9.53-23.18,11.88-35.33
			c3.58-18.51,5.17-37.41,6.31-56.2c3.92-64.45,3.02-129.25,3.05-193.79c0-11.07,0-22.14,0-33.21
			C936.5,364.05,921.5,364.04,921.5,373.71z"/>
	</g>
</g>
<g class="st1">
	<path class="st2" d="M929,498.09c0,341.81,0,0-109.32,0v-0.32c-75.57,2.73-97.52,46.9-103.9,40.12
		c-0.08,428.61-3.1-30.51-109.78-39.72v0.03c-77.26,0-100.5,246.16-107.5,222.15c-7,24.01-30.24-222.15-107.5-222.15v-0.03
		c-106.68,9.21-109.7,468.34-109.78,39.72c-6.38,6.78-28.33-37.39-103.9-40.12v0.32C68,498.09,68,839.9,68,498.09
		c64.81,0,91.19-27.75,101.94-33.89c0.27-191.43,5.63,33.43,113.89,33.43v0.35c76.46-2.81,99.98-128.03,107.21-117.33
		c0.58-399.83,8.11,107.34,107.46,117.39c99.35-10.05,106.88-517.23,107.45-117.38c7.22-10.79,30.74,114.51,107.22,117.32v-0.35
		c108.26,0,113.62-224.86,113.88-33.43C837.79,470.33,864.17,498.09,929,498.09z"/>
	<g class="st3">
		<path d="M924,498.09c0,42.93,0.72,85.96-0.79,128.87c-0.16,4.51-0.34,9.04-0.75,13.54c-0.07,0.8-0.16,1.6-0.24,2.4
			c-0.16,1.53,0.15-0.58-0.13,0.99c-0.17,0.98-0.4,1.93-0.62,2.9c-0.2,0.89,0.13-0.29,0.44-0.53c2.32-1.77,4.43-1,5.76-0.23
			c-0.75-0.43,0.55,1.07,0.19,0.25c-0.14-0.33-0.4-0.62-0.55-0.95c-0.18-0.4-0.39-0.81-0.59-1.21c-0.7-1.39,0.18,0.52-0.22-0.5
			c-6.26-15.71-10.47-32.25-16.19-48.17c-8.02-22.31-17.36-44.71-30.95-64.26c-12.24-17.61-29.1-34.15-51.2-37.42
			c-2.81-0.42-5.63-0.66-8.47-0.68c1.67,1.67,3.33,3.33,5,5c0-0.11,0-0.21,0-0.32c0-2.62-2.29-5.11-5-5
			c-22.68,0.92-45.11,5.52-65.52,15.66c-12.12,6.01-22.47,14.15-33.04,22.45c-0.58,0.46-2.37,1.83-3.89,2.66
			c0.09-0.05-0.39,0.11-0.17,0.12c0.88,0.06,1.79,0.24,2.26,0.7c-3.08-3.03-8.53-0.82-8.54,3.54
			c-0.01,52.89,0.85,105.92-1.11,158.78c-0.19,5.15-0.4,10.3-0.9,15.43c-0.08,0.8-0.17,1.6-0.26,2.4c-0.14,1.18,0.21-1.2-0.01,0.08
			c-0.06,0.33-0.09,0.67-0.17,1c-0.11,0.51-0.25,1.03-0.33,1.55c-0.19,1.12-0.41,0.53-0.13,0.55c-0.09-0.01,0.38-0.73,0.57-0.89
			c1.62-1.33,3.67-1.63,5.35-0.73c1.26,0.68,1.12,2.04,0.69,0.18c-0.28-1.19,0.43,1.27-0.08-0.21c-0.2-0.6-0.42-1.19-0.62-1.79
			c-0.47-1.44-0.88-2.91-1.28-4.37c-6.26-23.06-10.61-46.64-16.51-69.79c-7.88-30.9-17.01-61.9-30.88-90.71
			c-10.45-21.71-25.88-47.7-50.72-54.72c-2.74-0.77-5.57-1.21-8.4-1.48c-2.69-0.25-5,2.49-5,5c0,0.01,0,0.02,0,0.03
			c1.67-1.67,3.33-3.33,5-5c-17.07,0.14-31.07,10.86-41.29,23.7c-13.1,16.47-21.88,36.05-29.28,55.62
			c-15.14,40-23.94,81.95-33.23,123.58c-1.43,6.42-2.77,12.93-4.72,19.22c-0.27,0.89-0.57,1.76-0.89,2.63
			c-0.36,0.97-0.08-0.99-0.03,0.06c0.01,0.13-0.32,0.68-0.43,0.77c0.98-0.83,2.98-2.73,5.73-1.18c1.14,0.64,1.79,2.46,1.47,1.42
			c-1.43-4.75-8.21-4.75-9.64,0c-0.36,1.18,0.22-0.42,0.65-0.8c2.06-1.84,4.64-0.6,5.99-0.15c1.15,0.39,0.32,1.02,0.01-0.31
			c0.29,1.25-0.09-0.2-0.39-1.15c-1.61-5.05-2.8-10.23-3.98-15.39c-4.09-17.86-7.81-35.79-12.11-53.6
			c-5.47-22.67-11.58-45.23-19.39-67.22c-7.11-20.03-15.46-40.29-27.82-57.72c-10.8-15.22-25.88-29.31-45.64-29.47
			c1.67,1.67,3.33,3.33,5,5c0-0.01,0-0.02,0-0.03c0-2.52-2.3-5.25-5-5c-25.69,2.37-42.74,25.49-54.13,46.43
			c-15.15,27.85-24.72,58.72-32.92,89.22c-6.72,25-11.86,50.35-18.03,75.48c-0.83,3.37-1.65,6.76-2.74,10.06
			c-0.18,0.53-0.37,1.06-0.55,1.59c-0.52,1.55,0.07-0.8-0.14,0.36c-0.01,0.08-0.5,0.94-0.51,0.93c-0.1-0.06,0.75-0.92,1.21-1.16
			c1.77-0.92,3.75-0.66,5.37,0.72c0.31,0.26,0.76,0.69,0.78,1.38c-0.03-0.8-0.51-1.89-0.69-2.7c-0.07-0.3-0.09-0.6-0.15-0.9
			c-0.21-1.2,0.11,0.9,0,0.06c-0.11-0.9-0.21-1.8-0.29-2.7c-0.21-2.2-0.36-4.4-0.49-6.6c-2.67-45.88-1.46-92.16-1.49-138.1
			c-0.01-9.79-0.01-19.57-0.01-29.36c0-4.36-5.46-6.57-8.54-3.54c0.39-0.39,1.04-0.35,2-0.76c0.57-0.24,0.26,0.1,0.14,0
			c0.58,0.47-0.84-0.5-1.18-0.73c-0.72-0.48-1.42-0.97-2.11-1.48c-2.81-2.09-7.92-6.39-11.63-9.19
			c-13.71-10.37-29.15-18.17-45.67-22.98c-13.62-3.97-27.77-5.87-41.92-6.45c-2.7-0.11-5,2.38-5,5c0,0.11,0,0.21,0,0.32
			c1.67-1.67,3.33-3.33,5-5c-22.4,0.13-40.83,13.74-54.19,30.72c-14.89,18.93-24.97,41.23-33.47,63.62
			c-6.56,17.3-11.53,35.11-17.76,52.52c-0.44,1.23-0.9,2.45-1.38,3.67c-0.42,1.06,0.5-0.94-0.22,0.5c-0.2,0.4-0.41,0.8-0.59,1.21
			c-0.15,0.33-0.41,0.62-0.55,0.95c-0.35,0.79,0.93-0.63,0.19-0.25c1.4-0.72,3.39-1.57,5.76,0.23c0.29,0.22,0.62,1.36,0.44,0.53
			c-0.22-0.97-0.44-1.92-0.62-2.9c-0.29-1.61,0.04,0.62-0.13-0.99c-0.09-0.8-0.17-1.6-0.24-2.4c-0.18-1.98-0.31-3.97-0.42-5.96
			c-2.08-37.52-1.11-75.33-1.12-112.89c0-7.85,0-15.7,0-23.55c-1.67,1.67-3.33,3.33-5,5c22.41-0.09,45.03-3.24,65.86-11.82
			c12.09-4.98,22.89-11.71,33.48-19.3c1.38-0.99,2.78-1.93,4.18-2.88c4.74-3.19,3.43-8.6,3.44-13.76
			c0.02-9.46,0.06-18.91,0.18-28.37c0.14-11-0.07-22.26,1.41-33.19c-0.15,1.11,0.37-1.82,0.51-2.52c0.08-0.42,0.38-0.89,0.41-1.3
			c-0.05,0.71,0.08,0.45-0.67,1.08c-1.1,0.91-3.12,0.65-4.46,0.53c0.36,0.03-1.39-0.49-0.34-0.23c1.01,0.25-0.08-0.21,0.2,0.21
			c3.36,5.05,5.64,10.87,8.15,16.37c9,19.64,18.76,38.95,32.24,55.96c17.65,22.27,42.05,38.61,71.24,38.77c-1.67-1.67-3.33-3.33-5-5
			c0,0.12,0,0.23,0,0.35c0,2.61,2.29,5.12,5,5c56.33-2.48,83.08-61.21,102.3-105.96c1.55-3.61,3.04-7.3,4.95-10.73
			c0.32-0.57,0.65-1.12,0.99-1.67c0.62-1.01-0.2-0.31,0.26-0.34c1.02-0.08-1.45,0.64-1.16,0.58c-1.97,0.45-3.53-0.42-4.44-1.68
			c2.77,3.82,9.31,2.79,9.32-2.52c0.05-30.75,0.09-61.49,0.44-92.24c0.19-16.09,0.26-32.23,1.3-48.29c0.13-2.05,0.31-4.1,0.5-6.15
			c0.04-0.44,0.1-0.87,0.15-1.31c0.09-0.79-0.24,1.41-0.01,0.06c0.1-0.59,0.21-1.18,0.32-1.77c0.07-0.38,0.31-0.83,0.32-1.21
			c-0.01,0.23-0.15,0.72-0.82,1.28c-1.41,1.17-3.51,1.71-5.46,0.65c-0.19-0.1-1.72-1.67-1.23-1.12c0.56,0.63,0.43,1.05,0-0.11
			c0.18,0.48,0.37,0.96,0.51,1.46c0.38,1.32,0.76,2.64,1.09,3.97c1.01,4.11,1.83,8.28,2.64,12.43c5.67,29.22,10.54,58.58,16.75,87.7
			c7.51,35.17,16.09,70.58,29.76,103.93c9.33,22.76,22.93,53.23,48.46,61.56c24.69,8.06,44.57-22.06,54.09-40.19
			c16.24-30.9,25.61-65.46,33.69-99.23c7.72-32.23,13.66-64.84,19.59-97.43c1.76-9.69,3.36-19.46,5.74-29.03
			c0.33-1.34,0.73-2.65,1.11-3.98c0.13-0.45,0.31-0.89,0.48-1.33c-0.53,1.37-0.5,0.68,0.02,0.12c-0.22,0.24-0.82,1.12-1.86,1.48
			c-2.51,0.86-4.1-0.15-5.61-1.79c0.65,0.71-0.18-1.14-0.12-0.37c0.04,0.45,0.28,0.93,0.36,1.37c0.11,0.57,0.2,1.15,0.3,1.72
			c0.22,1.25-0.14-1.29,0.01,0.08c0.05,0.44,0.1,0.89,0.15,1.33c0.21,2.15,0.38,4.3,0.51,6.46c0.4,6.42,0.59,12.85,0.76,19.28
			c0.61,23.37,0.7,46.75,0.8,70.12c0.08,16.85,0.11,33.7,0.14,50.55c0.01,5.28,6.56,6.37,9.32,2.52c-1.77,2.46-4.15,1.58-5.81,0.88
			c0.72,0.3,0.46,0.73,0.08-0.02c0.26,0.51,0.67,0.97,0.95,1.48c1.52,2.76,2.83,5.61,4.09,8.5c4.18,9.53,8.11,19.16,12.57,28.57
			c11.38,24.04,25.77,48.1,47.3,64.36c12.74,9.62,27.74,15.32,43.73,16.03c2.7,0.12,5-2.39,5-5c0-0.12,0-0.23,0-0.35
			c-1.67,1.67-3.33,3.33-5,5c51.53-0.29,81.54-47.5,100.91-89.15c3.01-6.48,5.71-13.2,9.2-19.44c0.48-0.86,0.98-1.69,1.53-2.51
			c0.34-0.52,0.13-0.69-0.28,0.33c0.01-0.03,0.34-0.43,0.36-0.42c-0.27-0.12,2.03-0.08-0.23,0.1c-1.34,0.11-3.36,0.39-4.46-0.53
			c-1.33-1.11-0.18-0.26-0.31-0.23c-0.33,0.09-0.3-1.33,0.05,0.46c0.62,3.22,0.76,4.15,1.05,8.13c0.41,5.66,0.56,11.33,0.69,17
			c0.18,8.1,0.25,16.2,0.3,24.3c0.03,4.89,0.05,9.77,0.06,14.66c0.01,4.99-1.32,10.54,3.28,13.66
			c10.37,7.03,20.29,14.36,31.75,19.64c22.55,10.4,47.23,14.36,71.94,14.46c6.44,0.03,6.44-9.97,0-10
			c-23.87-0.1-48.04-3.82-69.64-14.4c-10.71-5.25-19.58-12.87-29.79-18.81c0.83,1.44,1.65,2.88,2.48,4.32
			c-0.03-23.07,1.19-46.85-1.53-69.83c-0.46-3.92-0.87-9.44-4.78-11.62c-4.53-2.52-8.22,1.46-10.38,4.98
			c-6.36,10.37-10.46,22.31-15.93,33.16c-8.09,16.05-17.46,31.75-29.84,44.89c-14.98,15.89-34.19,26.71-56.42,26.84
			c-2.7,0.01-5,2.28-5,5c0,0.12,0,0.23,0,0.35c1.67-1.67,3.33-3.33,5-5c-29.35-1.29-51.2-22.67-66.31-46.06
			c-12.67-19.62-20.66-41.18-30.56-62.18c-2.55-5.41-8.78-14.82-14.67-6.61c3.11,0.84,6.21,1.68,9.32,2.52
			c-0.05-31.05-0.09-62.1-0.45-93.15c-0.19-16.1-0.24-32.27-1.35-48.34c-0.32-4.68-0.17-19.17-8.71-16.67
			c-5.76,1.68-6.6,11.99-7.6,16.76c-5.82,27.76-10.14,55.82-15.84,83.61c-7.39,36.03-15.81,72.23-28.9,106.68
			c-5.38,14.16-11.67,28.2-20.2,40.77c-3.36,4.95-6.87,9.39-11.66,13.75c-3.13,2.84-8.33,6.31-11.75,7.48
			c-1.16,0.4-2.33,0.77-3.52,1.04c-0.5,0.12-1,0.21-1.51,0.31c-1.15,0.23,0.28,0.22-1.34,0.1c-0.75-0.05,0.67,0.14-0.58-0.1
			c-0.63-0.12-1.26-0.25-1.88-0.4c-1.26-0.31-2.48-0.71-3.7-1.16c-1.14-0.42,0.04,0.05-0.62-0.25c-0.6-0.27-1.2-0.56-1.79-0.86
			c-1.21-0.62-2.38-1.31-3.52-2.05c-2.63-1.72-3.29-2.27-5.77-4.57c-9.66-8.99-16.27-20.51-22.22-32.71
			c-15.59-31.99-24.52-67.33-32.4-101.88c-7.18-31.48-12.75-63.27-18.62-95c-1.53-8.24-2.69-16.86-5.33-24.85
			c-0.89-2.7-2.09-5.88-5.18-6.68c-4.14-1.07-6.56,2.34-7.41,5.82c-2.39,9.75-1.83,20.79-2.1,30.73
			c-0.63,23.48-0.72,46.98-0.83,70.47c-0.08,17.05-0.11,34.11-0.14,51.16c3.11-0.84,6.21-1.68,9.32-2.52
			c-5.02-6.94-10.95-0.76-13.62,4.47c-4.14,8.12-7.32,16.76-11.01,25.08c-10.86,24.53-23.87,49.64-44.42,67.5
			c-11.94,10.38-26.57,17.1-42.48,17.8c1.67,1.67,3.33,3.33,5,5c0-0.12,0-0.23,0-0.35c0-2.71-2.29-4.98-5-5
			c-40.08-0.22-66.32-33.87-83.45-66.27c-6.27-11.85-11.17-24.38-17.41-36.22c-1.61-3.05-3.66-7.01-7.29-7.94
			c-5.16-1.31-7.73,3.61-8.57,7.79c-1.6,8.03-1.54,16.51-1.75,24.65c-0.41,16.51-0.4,33.04-0.42,49.56
			c0.83-1.44,1.65-2.88,2.48-4.32c-10.21,5.94-19.08,13.56-29.8,18.81c-21.59,10.58-45.76,14.3-69.62,14.4c-2.7,0.01-5,2.28-5,5
			c0,43.45-0.82,87.03,0.84,130.45c0.26,6.78-0.03,14.61,2.12,21.15c2.1,6.39,8.86,6.65,12.16,1.08c2.96-5.01,4.5-11.17,6.28-16.66
			c2.93-9.02,5.76-18.08,8.82-27.06c7.66-22.44,16.46-44.82,29.18-64.93c11.19-17.7,26.69-35.1,47.95-38.53
			c1.94-0.31,4.54-0.48,6.97-0.5c2.7-0.02,5-2.28,5-5c0-0.11,0-0.21,0-0.32c-1.67,1.67-3.33,3.33-5,5
			c23.11,0.94,46.05,6,66.33,17.39c10.71,6.01,19.34,14.36,29.48,21.05c3.6,2.37,8.17,3.62,11.62,0.22
			c-2.85-1.18-5.69-2.36-8.54-3.54c0.01,53.35-0.95,106.87,1.16,160.2c0.2,4.94,0.41,9.9,0.93,14.82c0.32,2.98,0.46,6.52,1.94,9.23
			c1.91,3.52,6.27,4.47,9.25,1.6c1.81-1.75,2.61-4.51,3.37-6.83c2.67-8.14,4.32-16.67,6.21-25.01c2.98-13.17,5.94-26.35,9.16-39.47
			c7.62-31.09,16.2-62.41,29.35-91.68c5.7-12.68,12.67-25.98,21.1-36.46c7.2-8.96,15.76-16.67,25.72-19.74
			c2.55-0.79,5.07-1.23,6.61-1.37c-1.67-1.67-3.33-3.33-5-5c0,0.01,0,0.02,0,0.03c0,2.72,2.29,4.98,5,5
			c15.76,0.13,28.5,12.37,37.44,25.14c12.53,17.89,20.87,38.59,27.92,59.14c13.57,39.54,21.34,80.44,31.02,120.99
			c1.15,4.82,2.06,10.44,4.55,14.82c3.14,5.53,9.64,4.15,11.39-1.62c-3.21,0-6.43,0-9.64,0c1.61,5.34,7.66,7.28,11.04,2.2
			c2.14-3.21,2.96-7.68,3.9-11.35c4.12-16.17,7.29-32.59,11.03-48.86c5.23-22.76,10.98-45.44,18.16-67.67
			c6.89-21.35,14.95-42.75,26.91-61.84c9.32-14.88,23.09-30.82,41.3-30.97c2.7-0.02,5-2.27,5-5c0-0.01,0-0.02,0-0.03
			c-1.67,1.67-3.33,3.33-5,5c1.5,0.14,1,0.05,2.91,0.43c1.32,0.27,2.63,0.61,3.91,1.01c2.92,0.92,3.73,1.28,6.54,2.81
			c5.28,2.89,8.65,5.7,12.9,10.01c9.32,9.46,16.26,21.07,22.35,33.17c14.41,28.62,23.47,59.89,31.41,90.82
			c6.05,23.59,10.46,47.61,16.84,71.1c1.27,4.66,3.28,14.66,10.25,12.75c6.49-1.78,5.79-13.87,6.1-18.84
			c1-16.06,1.06-32.19,1.22-48.27c0.31-30.3,0.32-60.61,0.34-90.92c0.01-9.79,0.01-19.57,0.01-29.36c-2.85,1.18-5.69,2.36-8.54,3.54
			c6.76,6.65,16.25-3.75,21.27-7.76c12.8-10.23,27.01-18.4,42.63-23.49c14.1-4.59,28.74-6.81,43.53-7.4c-1.67-1.67-3.33-3.33-5-5
			c0,0.11,0,0.21,0,0.32c0,2.71,2.29,4.98,5,5c21.11,0.12,37.99,14.82,50.08,31.79c13.83,19.43,23.24,41.79,31.22,64.14
			c5.79,16.2,9.75,33.4,16.67,49.17c1.91,4.34,6.61,9.94,11.46,5.02c3.9-3.95,3.4-12.39,3.7-17.4c2.3-37.92,1.18-76.2,1.19-114.16
			c0-7.85,0-15.7,0-23.55C934,491.66,924,491.64,924,498.09z"/>
	</g>
</g>
</svg>
